<mxfile host="app.diagrams.net" modified="2024-05-16T08:30:30.620Z" agent="Mozilla/5.0 (Macintosh; Intel Mac OS X 10_15_7) AppleWebKit/537.36 (KHTML, like Gecko) Chrome/124.0.0.0 Safari/537.36" version="24.4.0" etag="8EJt6MEjBsHNu1UlcSS3" type="github">
  <diagram name="Page-1" id="V75CRQbBz7IZ-tTH-dza">
    <mxGraphModel>
      <root>
        <mxCell id="0" />
        <mxCell id="1" parent="0" />
      </root>
    </mxGraphModel>
  </diagram>
</mxfile>
